<?xml version="1.0" standalone="no"?>
<!DOCTYPE svg PUBLIC "-//W3C//DTD SVG 1.1//EN" "http://www.w3.org/Graphics/SVG/1.1/DTD/svg11.dtd" >
<svg xmlns="http://www.w3.org/2000/svg" xmlns:xlink="http://www.w3.org/1999/xlink" version="1.1">
<metadata>
Created by FontForge 20170731 at Tue May  1 13:01:31 2007
 By Aleksey,,,
URW Software, Copyright 1994 by URW
</metadata>
<defs>
<font id="AlternateGotNo3D" horiz-adv-x="410" >
  <font-face 
    font-family="Alternate Gothic No3 D"
    font-weight="500"
    font-stretch="normal"
    units-per-em="1000"
    panose-1="0 0 0 0 0 0 0 0 0 0"
    ascent="800"
    descent="-200"
    x-height="497"
    cap-height="667"
    bbox="-93 -177 740 846"
    underline-thickness="64"
    underline-position="-226"
    unicode-range="U+0020-FB02"
  />
<missing-glyph horiz-adv-x="153" 
 />
    <glyph glyph-name=".notdef" horiz-adv-x="153" 
 />
    <glyph glyph-name=".null" horiz-adv-x="0" 
 />
    <glyph glyph-name="nonmarkingreturn" horiz-adv-x="333" 
 />
    <glyph glyph-name="space" unicode=" " horiz-adv-x="153" 
 />
    <glyph glyph-name="exclam" unicode="!" horiz-adv-x="217" 
d="M139 201h-62l-24 466h110zM157 107v-107h-97v107h97z" />
    <glyph glyph-name="quotedbl" unicode="&#x22;" horiz-adv-x="362" 
d="M134 400h-75l-17 267h109zM302 400h-75l-17 267h109z" />
    <glyph glyph-name="numbersign" unicode="#" horiz-adv-x="441" 
d="M290 477l36 190h66l-36 -190h55l-12 -68h-56l-29 -159h60l-13 -68h-60l-34 -182h-66l34 182h-84l-34 -182h-66l34 182h-55l14 68h53l30 159h-58l15 67h56l35 191h66l-35 -190h84zM278 409h-85l-30 -159h85z" />
    <glyph glyph-name="dollar" unicode="$" 
d="M177 737h53v-62q77 -9 135 -74l-69 -68q-38 52 -90 52q-34 0 -53.5 -20.5t-19.5 -55.5q0 -40 26 -68q16 -17 79 -60q80 -56 110 -102t30 -113q0 -74 -39 -120t-109 -55v-76h-53v76q-87 11 -150 95l69 65q32 -40 56.5 -55t55.5 -15q32 0 51 21.5t19 58.5q0 41 -27 73
q-19 21 -86 69q-73 52 -101 95t-28 104q0 69 38.5 116t102.5 57v62z" />
    <glyph glyph-name="percent" unicode="%" horiz-adv-x="537" 
d="M215 557v-124q0 -116 -92 -116q-93 0 -93 116v124q0 117 93 117q92 0 92 -117zM90 568v-145q0 -30 7 -41.5t26 -11.5q18 0 25 11.5t7 41.5v145q0 30 -7 41.5t-25 11.5q-19 0 -26 -11.5t-7 -41.5zM379 667h55l-276 -667h-55zM507 234v-124q0 -117 -92 -117q-93 0 -93 117
v124q0 116 93 116q92 0 92 -116zM382 244v-145q0 -30 7 -41.5t26 -11.5q18 0 25 11.5t7 41.5v145q0 30 -7 41.5t-25 11.5q-19 0 -26 -11.5t-7 -41.5z" />
    <glyph glyph-name="ampersand" unicode="&#x26;" horiz-adv-x="469" 
d="M337 309l90 -11q-6 -93 -53 -166q21 -30 68 -42v-100q-66 3 -126 66q-63 -63 -131 -63q-64 0 -108 47.5t-44 116.5q0 86 89 191q-44 91 -44 161q0 73 39 119t100 46q54 0 89 -38.5t35 -98.5q0 -58 -40 -115q-16 -23 -67 -86q30 -75 76 -130q22 42 27 103zM191 423
q57 66 57 130q0 54 -39 54q-20 0 -32 -18.5t-12 -49.5q0 -55 26 -116zM167 259q-32 -47 -32 -89q0 -32 17.5 -55.5t42.5 -23.5q32 0 62 34q-55 58 -90 134z" />
    <glyph glyph-name="quotesingle" unicode="'" horiz-adv-x="197" 
d="M137 400h-78l-17 267h112z" />
    <glyph glyph-name="parenleft" unicode="(" horiz-adv-x="262" 
d="M175 708l59 -40q-110 -172 -110 -370t110 -370l-59 -40q-144 194 -144 410t144 410z" />
    <glyph glyph-name="parenright" unicode=")" horiz-adv-x="262" 
d="M86 -112l-58 40q110 174 110 370t-110 370l58 40q70 -92 107.5 -199t37.5 -211t-37.5 -211t-107.5 -199z" />
    <glyph glyph-name="asterisk" unicode="*" horiz-adv-x="306" 
d="M103 540l-66 16l23 69l63 -26l-6 68h73l-6 -68l63 26l23 -69l-66 -16l44 -51l-59 -44l-35 59l-36 -59l-59 44z" />
    <glyph glyph-name="plus" unicode="+" 
d="M373 381v-79h-127v-125h-81v125h-127v79h127v122h81v-122h127z" />
    <glyph glyph-name="comma" unicode="," horiz-adv-x="173" 
d="M135 107v-107l-59 -138h-38l44 138h-44v107h97z" />
    <glyph glyph-name="hyphen" unicode="-" horiz-adv-x="143" 
d="M143 295v-83h-143v83h143z" />
    <glyph glyph-name="period" unicode="." horiz-adv-x="173" 
d="M135 107v-107h-97v107h97z" />
    <glyph glyph-name="slash" unicode="/" horiz-adv-x="371" 
d="M264 667h84l-247 -734h-84z" />
    <glyph glyph-name="zero" unicode="0" 
d="M373 455v-243q0 -105 -35 -158q-44 -64 -132 -64q-89 0 -133 64q-35 53 -35 158v243q0 105 35 158q44 64 133 64q88 0 132 -64q35 -53 35 -158zM135 476v-285q0 -55 12 -78q17 -31 59 -31q41 0 58 31q12 23 12 78v285q0 55 -12 78q-17 31 -58 31q-42 0 -59 -31
q-12 -23 -12 -78z" />
    <glyph glyph-name="one" unicode="1" 
d="M275 667v-667h-97v510h-96v61q40 17 79 44.5t57 51.5h57z" />
    <glyph glyph-name="two" unicode="2" 
d="M358 90v-90h-325v90q159 209 198.5 276.5t39.5 134.5q0 84 -64 84q-44 0 -61 -41q-9 -18 -9 -71h-97q0 56 6.5 86t23.5 53q48 65 139 65q76 0 119 -47t43 -129q0 -80 -42 -154q-24 -40 -42.5 -66.5t-106.5 -144.5q-3 -4 -34 -46h212z" />
    <glyph glyph-name="three" unicode="3" 
d="M177 304v93q31 1 45 5.5t24 17.5q18 24 18 70q0 95 -61 95q-29 0 -45.5 -20.5t-17.5 -57.5v-10h-97v9q0 77 44.5 124t118.5 47t114.5 -48t40.5 -137q0 -60 -18 -91.5t-62 -47.5q50 -15 70.5 -50t20.5 -107q0 -100 -45 -152q-47 -54 -126 -54q-76 0 -121.5 49t-45.5 132
v19h100v-14q0 -45 18 -69.5t50 -24.5q70 0 70 112q0 60 -21 84.5t-74 25.5z" />
    <glyph glyph-name="four" unicode="4" 
d="M220 169h-206v104l197 394h106v-408h75v-90h-75v-169h-97v169zM220 259v245l-116 -245h116z" />
    <glyph glyph-name="five" unicode="5" 
d="M346 667v-90h-207l-3 -152q47 41 101 41q70 0 105 -55q29 -49 29 -172q0 -76 -7.5 -115.5t-27.5 -71.5q-39 -62 -133 -62q-76 0 -117 45.5t-41 129.5q0 13 1 23h96v-17q0 -89 62 -89q46 0 58 42q9 30 9 112q0 83 -14.5 115.5t-52.5 32.5q-22 0 -37 -11.5t-31 -41.5h-89
l7 336h292z" />
    <glyph glyph-name="six" unicode="6" 
d="M366 494h-97v15q0 76 -61 76q-42 0 -56 -31q-14 -28 -14 -110v-83q40 53 101 53q135 0 135 -199q0 -225 -167 -225q-81 0 -123 56q-43 57 -43 178v238q0 104 40 157q45 58 127 58q72 0 115 -45t43 -121v-17zM138 281v-91q0 -108 68 -108q37 0 52.5 28.5t15.5 94.5
q0 63 -15 90t-51 27q-37 0 -70 -41z" />
    <glyph glyph-name="seven" unicode="7" 
d="M358 667v-71l-149 -596h-101l147 577h-217v90h320z" />
    <glyph glyph-name="eight" unicode="8" 
d="M293 351q44 -18 62.5 -55t18.5 -106q0 -100 -44 -150q-45 -50 -125 -50t-125 50q-44 50 -44 150q0 69 18.5 106t62.5 55q-41 20 -57 52.5t-16 94.5q0 87 41.5 133t119.5 46t119.5 -46t41.5 -133q0 -62 -16 -94.5t-57 -52.5zM204 585q-63 0 -63 -94t64 -94t64 93
q0 95 -65 95zM204 302q-68 0 -68 -110t69 -110t69 109q0 111 -70 111z" />
    <glyph glyph-name="nine" unicode="9" 
d="M45 173h97v-15q0 -76 61 -76q42 0 56 31q14 28 14 110v83q-40 -53 -101 -53q-135 0 -135 199q0 225 167 225q81 0 123 -56q43 -57 43 -178v-238q0 -104 -40 -157q-45 -58 -127 -58q-72 0 -115 45t-43 121v17zM273 386v91q0 108 -68 108q-37 0 -52.5 -28.5t-15.5 -94.5
q0 -63 15 -90t51 -27q37 0 70 41z" />
    <glyph glyph-name="colon" unicode=":" horiz-adv-x="173" 
d="M135 107v-107h-97v107h97zM135 497v-107h-97v107h97z" />
    <glyph glyph-name="semicolon" unicode=";" horiz-adv-x="173" 
d="M135 497v-107h-97v107h97zM135 107v-107l-59 -138h-38l44 138h-44v107h97z" />
    <glyph glyph-name="less" unicode="&#x3c;" horiz-adv-x="500" 
d="M466 591v-101l-325 -154l325 -155v-100l-433 212v86z" />
    <glyph glyph-name="equal" unicode="=" 
d="M373 296v-79h-335v79h335zM373 463v-79h-335v79h335z" />
    <glyph glyph-name="greater" unicode="&#x3e;" horiz-adv-x="500" 
d="M34 81v101l325 154l-325 155v100l433 -212v-87z" />
    <glyph glyph-name="question" unicode="?" horiz-adv-x="355" 
d="M216 203h-84q-1 16 -1 35q0 68 13.5 114t54.5 119q27 50 27 75q0 20 -12 31.5t-31 11.5q-23 0 -39 -18.5t-31 -61.5l-93 27q23 72 62.5 105t104.5 33q63 0 102 -36t39 -94q0 -29 -10.5 -54t-39.5 -68q-40 -60 -51 -93.5t-11 -92.5v-33zM224 107v-107h-97v107h97z" />
    <glyph glyph-name="at" unicode="@" horiz-adv-x="471" 
d="M430 177h-63l-12 28q-33 -38 -74 -38q-81 0 -81 84v188q0 43 23 67t64 24q31 0 60 -26v21q0 36 -28.5 57.5t-75.5 21.5q-48 0 -79 -26q-17 -13 -23 -30.5t-6 -52.5v-311q0 -54 19 -80q34 -40 94 -40q54 0 99 31l50 -46q-56 -59 -150 -59q-88 0 -139 41q-26 21 -41 56.5
t-15 74.5v349q0 80 49 123t141 43q88 0 138 -42.5t50 -118.5v-339zM283 424v-151q0 -21 7 -29.5t25 -8.5t25 8.5t7 29.5v151q0 22 -7 30t-25 8t-25 -8t-7 -30z" />
    <glyph glyph-name="A" unicode="A" horiz-adv-x="451" 
d="M297 145h-142l-27 -145h-101l128 667h141l135 -667h-106zM280 240l-55 299l-54 -299h109z" />
    <glyph glyph-name="B" unicode="B" horiz-adv-x="456" 
d="M51 0v667h154q94 0 144.5 -44t50.5 -125q0 -115 -110 -149q67 -19 96.5 -56.5t29.5 -103.5q0 -89 -52.5 -139t-145.5 -50h-167zM154 395h37q47 0 75.5 25.5t28.5 68.5q0 39 -25 62q-24 21 -77 21h-39v-177zM154 95h52q49 0 76 24.5t27 69.5q0 50 -32 80.5t-86 30.5h-37
v-205z" />
    <glyph glyph-name="C" unicode="C" horiz-adv-x="444" 
d="M405 450h-103v17q0 113 -78 113q-44 0 -61 -33q-16 -27 -16 -96v-222q0 -69 11 -99q16 -43 67 -43q58 0 73 69q5 19 6 78h104v-22q0 -109 -46.5 -165.5t-136.5 -56.5q-104 0 -149 74q-19 31 -25.5 68t-6.5 111v187q0 79 8 116t31 69q45 62 141 62q87 0 134 -55t47 -157
v-15z" />
    <glyph glyph-name="D" unicode="D" horiz-adv-x="450" 
d="M51 0v667h163q98 0 145.5 -51.5t47.5 -157.5v-249q0 -106 -47.5 -157.5t-145.5 -51.5h-163zM154 95h51q55 0 77 32t22 110v193q0 79 -22 110.5t-77 31.5h-51v-477z" />
    <glyph glyph-name="E" unicode="E" horiz-adv-x="373" 
d="M353 667v-95h-199v-176h147v-95h-147v-206h199v-95h-302v667h302z" />
    <glyph glyph-name="F" unicode="F" horiz-adv-x="367" 
d="M154 297v-297h-103v667h305v-95h-202v-180h150v-95h-150z" />
    <glyph glyph-name="G" unicode="G" horiz-adv-x="448" 
d="M220 331h188v-331h-53l-19 57q-47 -67 -125 -67q-46 0 -82 20.5t-56 57.5q-29 57 -29 178v184q0 80 8 117t31 68q45 62 141 62q116 0 159 -94q22 -44 22 -133h-103q0 69 -18.5 99.5t-60.5 30.5q-44 0 -61 -34q-15 -28 -15 -96v-204q0 -75 11 -109q18 -50 70 -50
q40 0 58.5 31.5t18.5 100.5v27h-85v85z" />
    <glyph glyph-name="H" unicode="H" horiz-adv-x="454" 
d="M301 294h-147v-294h-103v667h103v-278h147v278h103v-667h-103v294z" />
    <glyph glyph-name="I" unicode="I" horiz-adv-x="205" 
d="M154 667v-667h-103v667h103z" />
    <glyph glyph-name="J" unicode="J" horiz-adv-x="259" 
d="M105 667h103v-504q0 -52 -6 -79t-23 -47q-30 -37 -104 -37h-62v97h24q38 0 53 16.5t15 57.5v496z" />
    <glyph glyph-name="K" unicode="K" horiz-adv-x="444" 
d="M154 667v-276l149 276h111l-141 -242l161 -425h-113l-112 315l-55 -93v-222h-103v667h103z" />
    <glyph glyph-name="L" unicode="L" horiz-adv-x="372" 
d="M154 667v-572h205v-95h-308v667h103z" />
    <glyph glyph-name="M" unicode="M" horiz-adv-x="587" 
d="M536 667v-667h-98v491l-116 -491h-58l-115 491v-491h-98v667h151l92 -419l93 419h149z" />
    <glyph glyph-name="N" unicode="N" horiz-adv-x="471" 
d="M421 667v-667h-92l-180 444v-444h-98v667h104l168 -415v415h98z" />
    <glyph glyph-name="O" unicode="O" horiz-adv-x="452" 
d="M408 455v-243q0 -105 -38 -158q-46 -64 -144 -64t-144 64q-38 53 -38 158v243q0 105 38 158q46 64 144 64t144 -64q38 -53 38 -158zM147 453v-239q0 -64 13 -91q20 -36 66 -36t66 36q13 25 13 91v239q0 66 -13 91q-20 36 -66 36t-66 -36q-13 -26 -13 -91z" />
    <glyph glyph-name="P" unicode="P" horiz-adv-x="435" 
d="M154 270v-270h-103v667h171q96 0 140 -43q53 -50 53 -156q0 -105 -53 -155q-44 -43 -140 -43h-68zM154 365h45q62 0 85.5 22.5t23.5 81.5t-23.5 81t-85.5 22h-45v-207z" />
    <glyph glyph-name="Q" unicode="Q" horiz-adv-x="452" 
d="M438 47v-96q-91 0 -125 56q-44 -17 -89 -17q-95 0 -142 64q-38 52 -38 158v243q0 105 38 158q46 64 144 64t144 -64q38 -53 38 -158v-243q0 -91 -25 -137q16 -25 55 -28zM147 453v-239q0 -64 13 -91q20 -36 66 -36t66 36q13 25 13 91v239q0 66 -13 91q-20 36 -66 36
t-66 -36q-13 -26 -13 -91z" />
    <glyph glyph-name="R" unicode="R" horiz-adv-x="439" 
d="M154 274v-274h-103v667h161q86 0 132 -40q60 -51 60 -151q0 -126 -90 -173l98 -303h-108l-88 274h-62zM154 369h38q59 0 80 21q25 25 25 81q0 55 -25 80q-21 21 -80 21h-38v-203z" />
    <glyph glyph-name="S" unicode="S" horiz-adv-x="426" 
d="M401 510l-99 -29q-24 99 -88 99q-29 0 -48 -19.5t-19 -48.5q0 -37 28 -67q17 -19 88 -73q71 -56 99 -90q43 -53 43 -122q0 -76 -50.5 -123t-132.5 -47q-171 0 -202 188l99 29q19 -120 103 -120q34 0 55 21t21 55q0 31 -20 57.5t-79 72.5q-69 54 -86 69.5t-36 39.5
q-37 48 -37 111q0 72 49 118t125 46q144 0 187 -167z" />
    <glyph glyph-name="T" unicode="T" horiz-adv-x="375" 
d="M239 572v-572h-103v572h-129v95h362v-95h-130z" />
    <glyph glyph-name="U" unicode="U" horiz-adv-x="454" 
d="M301 667h103v-452q0 -113 -38 -165q-45 -60 -138 -60q-94 0 -139 60q-38 52 -38 165v452h103v-469q0 -59 17 -85t56 -26q40 0 57 26t17 85v469z" />
    <glyph glyph-name="V" unicode="V" horiz-adv-x="433" 
d="M288 0h-128l-143 667h107l100 -507l88 507h105z" />
    <glyph glyph-name="W" unicode="W" horiz-adv-x="637" 
d="M504 0h-96l-86 452l-81 -452h-96l-125 667h100l76 -430l80 430h89l88 -430l67 430h97z" />
    <glyph glyph-name="X" unicode="X" horiz-adv-x="450" 
d="M280 348l156 -348h-114l-102 243l-94 -243h-113l149 348l-143 319h114l89 -214l83 214h112z" />
    <glyph glyph-name="Y" unicode="Y" horiz-adv-x="440" 
d="M270 260v-260h-103v260l-150 407h114l89 -282l92 282h112z" />
    <glyph glyph-name="Z" unicode="Z" horiz-adv-x="389" 
d="M369 95v-95h-349v97l233 475h-211v95h324v-95l-232 -477h235z" />
    <glyph glyph-name="bracketleft" unicode="[" horiz-adv-x="262" 
d="M222 667v-87h-78v-588h78v-87h-173v762h173z" />
    <glyph glyph-name="backslash" unicode="\" horiz-adv-x="371" 
d="M107 667l247 -734h-84l-247 734h84z" />
    <glyph glyph-name="bracketright" unicode="]" horiz-adv-x="262" 
d="M39 -95v87h79v588h-79v87h174v-762h-174z" />
    <glyph glyph-name="asciicircum" unicode="^" horiz-adv-x="500" 
d="M119 366h-93l167 303h114l167 -303h-93l-132 234z" />
    <glyph glyph-name="underscore" unicode="_" horiz-adv-x="500" 
d="M0 -66h500v-64h-500v64z" />
    <glyph glyph-name="grave" unicode="`" horiz-adv-x="500" 
d="M291 578h-70l-72 89h97z" />
    <glyph glyph-name="a" unicode="a" horiz-adv-x="396" 
d="M354 0h-96q-8 22 -8 58q-34 -37 -58 -51t-54 -14q-47 0 -74 35t-27 97q0 48 19.5 80t66.5 60q26 17 127 60v26q0 38 -11.5 54.5t-37.5 16.5t-39 -16.5t-16 -54.5h-98q6 75 48.5 114t117.5 39q68 0 102 -38q16 -20 21.5 -42.5t5.5 -67.5v-221q0 -90 11 -135zM250 120v136
q-62 -33 -88.5 -62t-26.5 -63q0 -25 13.5 -40.5t33.5 -15.5q41 0 68 45z" />
    <glyph glyph-name="b" unicode="b" horiz-adv-x="387" 
d="M43 0v667h93v-219q59 56 110 56q55 0 80 -51q20 -45 20 -145v-119q0 -100 -20 -145q-25 -51 -80 -51q-51 0 -110 56v-49h-93zM136 397v-297q35 -25 65 -25q32 0 43 26q9 19 9 82v131q0 63 -9 82q-11 26 -43 26q-30 0 -65 -25z" />
    <glyph glyph-name="c" unicode="c" horiz-adv-x="377" 
d="M349 325h-93v16q0 81 -60 81q-36 0 -49.5 -24.5t-13.5 -89.5v-120q0 -63 12 -86q14 -27 51 -27q60 0 60 85v16h93v-18q0 -83 -35 -122q-41 -46 -118 -46q-87 0 -125 52q-31 42 -31 134v144q0 93 31 135q38 52 125 52q78 0 118 -45q35 -38 35 -120v-17z" />
    <glyph glyph-name="d" unicode="d" horiz-adv-x="387" 
d="M343 0h-93v49q-59 -56 -110 -56q-55 0 -80 51q-20 45 -20 145v119q0 100 20 145q25 51 80 51q51 0 110 -56v219h93v-667zM250 100v297q-35 25 -65 25q-32 0 -43 -26q-9 -19 -9 -82v-131q0 -63 9 -82q11 -26 43 -26q30 0 65 25z" />
    <glyph glyph-name="e" unicode="e" horiz-adv-x="389" 
d="M348 233h-215v-44q0 -65 13.5 -89.5t49.5 -24.5q45 0 56 44q4 13 4 53h93q-1 -54 -5 -77t-16 -42q-38 -63 -132 -63q-87 0 -125 52q-31 44 -31 135v148q0 59 8.5 89.5t31.5 52.5q42 40 113 40q77 0 117 -46q22 -24 30 -55.5t8 -90.5v-82zM255 315v27q0 44 -14.5 63.5
t-46.5 19.5t-46.5 -19.5t-14.5 -63.5v-27h122z" />
    <glyph glyph-name="f" unicode="f" horiz-adv-x="245" 
d="M244 497v-83h-78v-414h-93v414h-67v83h67v47q0 45 6.5 67.5t24.5 37.5q29 25 85 25q27 0 63 -7v-87q-29 9 -41 9q-25 0 -35 -14t-10 -51v-27h78z" />
    <glyph glyph-name="g" unicode="g" horiz-adv-x="404" 
d="M398 502v-99q-14 13 -32 13q-22 0 -37 -19q10 -37 10 -81q0 -94 -38 -143t-112 -49q-11 0 -35 3q-22 -11 -22 -29q0 -20 29 -23q24 -3 67 -5q82 -5 118 -27q47 -30 47 -96q0 -64 -48.5 -94t-149.5 -30q-172 0 -172 90q0 29 18.5 48.5t59.5 33.5q-58 23 -58 65
q0 28 17 45.5t60 31.5q-44 23 -63.5 65t-19.5 112q0 93 39 141.5t114 48.5q78 0 121 -63q9 34 29.5 48t57.5 13zM132 341v-55q0 -80 56 -80t56 80v55q0 81 -56 81t-56 -81zM143 -13q-25 -22 -25 -44t21 -31.5t70 -9.5q95 0 95 42q0 28 -40 34q-10 2 -72 4q-26 2 -49 5z" />
    <glyph glyph-name="h" unicode="h" horiz-adv-x="385" 
d="M136 667v-234q61 71 124 71q81 0 81 -116v-388h-93v364q0 32 -8 45t-27 13q-39 0 -77 -50v-372h-93v667h93z" />
    <glyph glyph-name="i" unicode="i" horiz-adv-x="180" 
d="M136 497v-497h-93v497h93zM136 667v-97h-93v97h93z" />
    <glyph glyph-name="j" unicode="j" horiz-adv-x="193" 
d="M57 497h93v-504q0 -50 -6 -74.5t-22 -43.5q-36 -42 -106 -42q-20 0 -40 5v90q19 -3 29 -3q29 0 40.5 19.5t11.5 68.5v484zM150 667v-97h-93v97h93z" />
    <glyph glyph-name="k" unicode="k" horiz-adv-x="374" 
d="M136 667v-369l112 199h106l-101 -162l110 -335h-104l-70 232l-53 -84v-148h-93v667h93z" />
    <glyph glyph-name="l" unicode="l" horiz-adv-x="180" 
d="M136 667v-667h-93v667h93z" />
    <glyph glyph-name="m" unicode="m" horiz-adv-x="589" 
d="M136 497v-64q61 71 124 71q64 0 78 -71q62 71 126 71q82 0 82 -116v-388h-93v364q0 32 -8 45t-27 13q-40 0 -77 -50v-372h-93v364q0 32 -8 45t-27 13q-39 0 -77 -50v-372h-93v497h93z" />
    <glyph glyph-name="n" unicode="n" horiz-adv-x="385" 
d="M136 497v-64q61 71 124 71q81 0 81 -116v-388h-93v364q0 32 -8 45t-27 13q-39 0 -77 -50v-372h-93v497h93z" />
    <glyph glyph-name="o" unicode="o" horiz-adv-x="385" 
d="M345 325v-153q0 -59 -8.5 -89.5t-30.5 -52.5q-42 -40 -113 -40q-72 0 -114 40q-22 23 -30.5 53.5t-8.5 88.5v153q0 58 8.5 88.5t30.5 53.5q42 40 114 40q71 0 113 -40q22 -22 30.5 -52.5t8.5 -89.5zM133 331v-165q0 -91 59 -91q31 0 45.5 22t14.5 69v165q0 48 -14 69.5
t-46 21.5q-59 0 -59 -91z" />
    <glyph glyph-name="p" unicode="p" horiz-adv-x="387" 
d="M43 497h93v-49q59 56 110 56q55 0 80 -51q20 -45 20 -145v-119q0 -100 -20 -145q-25 -51 -80 -51q-51 0 -110 56v-219h-93v667zM136 397v-297q35 -25 65 -25q32 0 43 26q9 19 9 82v131q0 63 -9 82q-11 26 -43 26q-30 0 -65 -25z" />
    <glyph glyph-name="q" unicode="q" horiz-adv-x="387" 
d="M343 497v-667h-93v219q-59 -56 -110 -56q-55 0 -80 51q-20 45 -20 145v119q0 100 20 145q25 51 80 51q51 0 110 -56v49h93zM250 100v297q-35 25 -65 25q-32 0 -43 -26q-9 -19 -9 -82v-131q0 -63 9 -82q11 -26 43 -26q30 0 65 25z" />
    <glyph glyph-name="r" unicode="r" horiz-adv-x="255" 
d="M43 497h93v-86q19 49 47 71t72 22v-108q-23 9 -45 9q-38 0 -58 -26q-16 -21 -16 -80v-299h-93v497z" />
    <glyph glyph-name="s" unicode="s" horiz-adv-x="362" 
d="M334 387l-85 -37q-15 39 -32.5 55.5t-44.5 16.5q-22 0 -35.5 -12t-13.5 -32t16 -35.5t68 -43.5q77 -42 101 -68q35 -37 35 -94q0 -66 -42 -106.5t-111 -40.5q-64 0 -105 34t-65 106l87 30q15 -46 34.5 -65.5t48.5 -19.5q23 0 38 14t15 36q0 21 -15 37t-55 38
q-82 46 -109 74q-36 38 -36 94q0 61 41 100t104 39q116 0 161 -120z" />
    <glyph glyph-name="t" unicode="t" horiz-adv-x="273" 
d="M261 497v-83h-85v-265q0 -38 13.5 -54.5t44.5 -16.5q17 0 36 6v-84q-36 -7 -64 -7q-70 0 -100 37q-13 16 -18 39t-5 70v275h-72v83h72v136h93v-136h85z" />
    <glyph glyph-name="u" unicode="u" horiz-adv-x="385" 
d="M341 497v-497h-93v64q-61 -71 -124 -71q-81 0 -81 116v388h93v-364q0 -32 8 -45t27 -13q39 0 77 50v372h93z" />
    <glyph glyph-name="v" unicode="v" horiz-adv-x="351" 
d="M230 0h-98l-122 497h99l71 -316l63 316h98z" />
    <glyph glyph-name="w" unicode="w" horiz-adv-x="540" 
d="M422 0h-88l-64 305l-63 -305h-88l-106 497h95l60 -310l61 310h85l63 -310l56 310h94z" />
    <glyph glyph-name="x" unicode="x" horiz-adv-x="368" 
d="M238 260l117 -260h-102l-71 176l-70 -176h-99l115 260l-107 237h101l61 -153l58 153h100z" />
    <glyph glyph-name="y" unicode="y" horiz-adv-x="354" 
d="M248 497h96l-108 -476q-26 -122 -66 -160t-145 -38v96q7 -1 17 -1q38 0 61 22.5t23 59.5q0 14 -7 43l-109 454h98l73 -339z" />
    <glyph glyph-name="z" unicode="z" horiz-adv-x="341" 
d="M318 90v-90h-295v93l188 314h-172v90h279v-93l-188 -314h188z" />
    <glyph glyph-name="braceleft" unicode="{" horiz-adv-x="293" 
d="M175 487v-86q0 -48 -12 -73t-44 -42q31 -18 43.5 -44t12.5 -74v-84q0 -55 19 -73t77 -19v-86q-85 0 -111 5.5t-47 26.5q-34 34 -34 115v101q0 44 -13 65t-44 29v79q31 8 44 29t13 61v113q0 74 36 107q21 20 48 25t108 5v-92q-58 -1 -77 -18.5t-19 -69.5z" />
    <glyph glyph-name="bar" unicode="|" horiz-adv-x="500" 
d="M199 667h102v-834h-102v834z" />
    <glyph glyph-name="braceright" unicode="}" horiz-adv-x="293" 
d="M119 84v84q0 48 12.5 74t43.5 44q-32 17 -44 42t-12 73v86q0 52 -19 69.5t-77 18.5v92q81 0 108 -5t48 -25q36 -33 36 -107v-113q0 -40 13 -61t44 -29v-79q-31 -8 -44 -29t-13 -65v-101q0 -81 -34 -115q-21 -21 -47 -26.5t-111 -5.5v86q58 1 77 19t19 73z" />
    <glyph glyph-name="asciitilde" unicode="~" horiz-adv-x="667" 
d="M146 571l-52 42q52 120 140 120q36 0 115 -37q63 -31 87 -31q48 0 86 71l52 -42q-51 -119 -149 -119q-19 0 -39.5 7.5t-76.5 34.5q-51 25 -81 25q-42 0 -82 -71z" />
    <glyph glyph-name="registered" unicode="&#xa0;" horiz-adv-x="778" 
d="M394 679q139 0 239.5 -102t100.5 -244q0 -143 -101 -244t-244 -101t-244 101t-101 244q0 145 101.5 245.5t248.5 100.5zM386 623q-116 0 -199 -85.5t-83 -203.5q0 -120 83.5 -205t201.5 -85t201.5 85t83.5 204q0 122 -83.5 206t-204.5 84zM356 293v-161h-68v400h99
q56 0 86 -30t30 -86q0 -75 -52 -104l59 -180h-71l-52 161h-31zM356 356h19q33 0 45.5 12.5t12.5 44.5t-12.5 44t-45.5 12h-19v-113z" />
    <glyph glyph-name="exclamdown" unicode="&#xa1;" horiz-adv-x="217" 
d="M77 295h62l24 -465h-110zM60 390v107h97v-107h-97z" />
    <glyph glyph-name="cent" unicode="&#xa2;" 
d="M179 690h53v-100q127 -13 127 -160v-20h-94q1 7 1 17q0 80 -60 80q-37 0 -51 -27q-12 -23 -12 -87v-120q0 -63 12 -86q14 -27 50 -27q61 0 61 83q0 10 -1 18h94v-21q0 -77 -30 -115.5t-97 -47.5v-108h-53v108q-71 11 -100 52t-29 132v144q0 69 15 106t50 59q25 16 64 20
v100z" />
    <glyph glyph-name="sterling" unicode="&#xa3;" 
d="M305 353v-61h-96q16 -44 16 -84q0 -47 -31 -91q57 -21 69 -21q20 0 32 21t12 58h88q0 -84 -30.5 -133t-82.5 -49q-34 0 -102 32q-26 13 -40 13q-30 0 -65 -48l-63 64q40 73 96 79q25 36 25 72q0 34 -25 87h-85v61h63q-26 72 -33 100t-7 58q0 76 44.5 121t120.5 45
q107 0 146 -86q17 -38 17 -105h-96q-2 53 -17.5 76t-49.5 23q-30 0 -48 -19t-18 -51q0 -26 6.5 -52t31.5 -92l6 -18h116z" />
    <glyph glyph-name="currency" unicode="&#xa4;" horiz-adv-x="416" 
d="M337 268l42 -43l-57 -57l-41 41q-35 -19 -72 -19q-35 0 -72 19l-43 -42l-56 56l44 44q-17 34 -17 66q0 37 19 72l-42 42l58 58l43 -44q36 16 66 16q34 0 67 -16l47 47l56 -56l-46 -46q19 -34 19 -72q0 -35 -15 -66zM207 409q-30 0 -52.5 -23t-22.5 -52q0 -31 22.5 -54
t53.5 -23t54 22.5t23 52.5q0 32 -23 54.5t-55 22.5z" />
    <glyph glyph-name="yen" unicode="&#xa5;" 
d="M252 285v-285h-98v285h-99v61h77l-114 321h102l84 -283l88 283h99l-117 -321h76v-61h-98z" />
    <glyph glyph-name="logicalnot" unicode="&#xa6;" horiz-adv-x="500" 
d="M367 0v193h-334v89h433v-282h-99z" />
    <glyph glyph-name="section" unicode="&#xa7;" 
d="M337 517h-91v22q0 55 -40 55q-14 0 -23.5 -8.5t-9.5 -21.5q0 -15 25 -41l140 -161q39 -43 39 -93q0 -83 -87 -118l11 -12q29 -37 29 -81q0 -52 -35 -83.5t-93 -31.5q-63 0 -99 35t-36 97q0 11 2 21h92q0 -3 -0.5 -7t-1 -6.5t-0.5 -4.5q0 -23 12 -36.5t32 -13.5q14 0 23 9
t9 24q0 16 -17 36l-119 132q-40 45 -53 69t-13 52q0 75 100 109l-10 13q-27 32 -36 50.5t-9 43.5q0 49 36 80t93 31q60 0 96 -35t36 -93q0 -17 -2 -32zM255 317l-82 92q-45 -21 -45 -52q0 -21 20 -44l96 -106q38 17 38 55q0 25 -27 55z" />
    <glyph glyph-name="dieresis" unicode="&#xa8;" horiz-adv-x="500" 
d="M217 667v-89h-87v89h87zM370 667v-89h-87v89h87z" />
    <glyph glyph-name="threequarters" unicode="&#xa9;" horiz-adv-x="673" 
d="M117 446v62q35 1 46.5 11t11.5 40q0 53 -38 53q-17 0 -27.5 -11.5t-10.5 -30.5q0 -6 1 -10h-69v11q0 46 30 74t78 28q49 0 76 -29.5t27 -83.5q0 -62 -45 -82q52 -16 52 -93q0 -60 -29.5 -92.5t-83.5 -32.5q-65 0 -95 49q-15 25 -15 76h70l1 -11q3 -53 40 -53q41 0 41 63
q0 35 -13 48t-48 14zM184 -33l250 733h56l-254 -733h-52zM541 100h-131v66l127 234h73v-240h49v-60h-49v-100h-69v100zM543 158v145l-71 -145h71z" />
    <glyph glyph-name="ordfeminine" unicode="&#xaa;" horiz-adv-x="263" 
d="M233 267h-68q-3 9 -6 29q-32 -33 -66 -33q-31 0 -48.5 21.5t-17.5 59.5q0 54 55 86q19 11 77 34v13q0 22 -6 30.5t-20 8.5q-15 0 -22.5 -9.5t-8.5 -32.5h-69q8 97 108 97q43 0 66 -23q18 -21 18 -68v-130q0 -56 8 -83zM159 342v73q-63 -32 -63 -68q0 -13 7 -21t18 -8
q22 0 38 24z" />
    <glyph glyph-name="guillemotleft" unicode="&#xab;" horiz-adv-x="309" 
d="M276 93l-103 85v144l103 85v-120l-38 -37l38 -37v-120zM136 93l-103 85v144l103 85v-120l-38 -37l38 -37v-120z" />
    <glyph glyph-name="nbspace" unicode="&#xac;" horiz-adv-x="153" 
 />
    <glyph glyph-name="middot" unicode="&#xad;" horiz-adv-x="173" 
d="M135 307v-107h-97v107h97z" />
    <glyph glyph-name="copyright" unicode="&#xae;" horiz-adv-x="778" 
d="M394 679q139 0 239.5 -102t100.5 -244q0 -143 -101 -244t-244 -101t-244 101t-101 244q0 145 101.5 245.5t248.5 100.5zM386 623q-116 0 -199 -85.5t-83 -203.5q0 -120 83.5 -205t201.5 -85t201.5 85t83.5 204q0 122 -83.5 206t-204.5 84zM498 400h-67l-1 11
q-1 36 -11 51t-32 15q-23 0 -32 -16.5t-9 -56.5v-130q0 -46 9.5 -63.5t33.5 -17.5t33 18.5t10 68.5h68v-17q0 -65 -28.5 -99.5t-82.5 -34.5q-64 0 -92 45q-19 32 -19 108v110q0 47 5 69.5t19 41.5q28 38 86 38q110 0 110 -141z" />
    <glyph glyph-name="macron" unicode="&#xaf;" horiz-adv-x="500" 
d="M148 589v67h205v-67h-205z" />
    <glyph glyph-name="sfthyphen" unicode="&#xb0;" horiz-adv-x="143" 
d="M143 295v-83h-143v83h143z" />
    <glyph glyph-name="trademark" unicode="&#xb1;" horiz-adv-x="583" 
d="M162 607v-320h-67v320h-75v60h217v-60h-75zM543 667v-380h-64v253l-59 -253h-42l-59 253v-253h-64v380h94l50 -217l51 217h93z" />
    <glyph glyph-name="twosuperior" unicode="&#xb2;" horiz-adv-x="277" 
d="M240 326v-60h-215v58q100 120 126.5 161.5t26.5 79.5q0 47 -38 47q-42 0 -42 -53v-14h-69v19q0 51 30 80t83 29q50 0 78.5 -29t28.5 -79q0 -48 -28 -92q-20 -33 -96 -125q-6 -8 -18 -22h133z" />
    <glyph glyph-name="threesuperior" unicode="&#xb3;" horiz-adv-x="277" 
d="M117 446v62q35 1 46.5 11t11.5 40q0 53 -38 53q-17 0 -27.5 -11.5t-10.5 -30.5q0 -6 1 -10h-69v11q0 46 30 74t78 28q49 0 76 -29.5t27 -83.5q0 -62 -45 -82q52 -16 52 -93q0 -60 -29.5 -92.5t-83.5 -32.5q-65 0 -95 49q-15 25 -15 76h70l1 -11q3 -53 40 -53q41 0 41 63
q0 35 -13 48t-48 14z" />
    <glyph glyph-name="acute" unicode="&#xb4;" horiz-adv-x="500" 
d="M202 578l46 89h96l-72 -89h-70z" />
    <glyph glyph-name="brokenbar" unicode="&#xb5;" horiz-adv-x="500" 
d="M199 667h102v-340h-102v340zM199 153h102v-320h-102v320z" />
    <glyph glyph-name="paragraph" unicode="&#xb6;" horiz-adv-x="418" 
d="M189 -100v420q-63 2 -106 52t-43 120q0 77 47.5 126t121.5 49h172v-30h-40v-737h-48v737h-55v-737h-49z" />
    <glyph glyph-name="periodcentered" unicode="&#xb7;" horiz-adv-x="173" 
d="M135 307v-107h-97v107h97z" />
    <glyph glyph-name="cedilla" unicode="&#xb8;" horiz-adv-x="500" 
d="M290 -46v-68l-22 -56h-47l17 56h-28v68h80z" />
    <glyph glyph-name="onesuperior" unicode="&#xb9;" horiz-adv-x="277" 
d="M187 667v-400h-69v301h-62v42q63 24 89 57h42z" />
    <glyph glyph-name="ordmasculine" unicode="&#xba;" horiz-adv-x="256" 
d="M226 462v-91q0 -35 -5.5 -53.5t-20.5 -32.5q-26 -24 -72 -24q-48 0 -73 25q-26 23 -26 85v91q0 63 26 86q25 25 73 25q47 0 72 -25q26 -23 26 -86zM95 465v-97q0 -50 33 -50q32 0 32 50v97q0 51 -32 51q-33 0 -33 -51z" />
    <glyph glyph-name="guillemotright" unicode="&#xbb;" horiz-adv-x="309" 
d="M33 407l103 -85v-144l-103 -85v120l38 37l-38 37v120zM173 407l103 -85v-144l-103 -85v120l38 37l-38 37v120z" />
    <glyph glyph-name="onehalf" unicode="&#xbc;" horiz-adv-x="673" 
d="M187 667v-400h-69v301h-62v42q63 24 89 57h42zM183 -33l250 733h57l-255 -733h-52zM636 60v-60h-215v58q100 119 126.5 161t26.5 80q0 46 -38 46q-42 0 -42 -52v-14h-69v19q0 50 30 79t83 29q50 0 78.5 -29t28.5 -78q0 -48 -28 -92q-20 -33 -96 -125l-18 -22h133z" />
    <glyph glyph-name="plusminus" unicode="&#xbd;" 
d="M373 127v-79h-335v79h335zM373 378v-79h-127v-126h-81v126h-127v79h127v122h81v-122h127z" />
    <glyph glyph-name="onequarter" unicode="&#xbe;" horiz-adv-x="673" 
d="M187 667v-400h-69v301h-62v42q63 24 89 57h42zM183 -33l250 733h57l-255 -733h-52zM541 100h-132v66l128 234h73v-240h48v-60h-48v-100h-69v100zM543 158v145l-72 -145h72z" />
    <glyph glyph-name="questiondown" unicode="&#xbf;" horiz-adv-x="355" 
d="M139 294h85v-31q0 -71 -13 -117t-55 -120q-27 -50 -27 -75q0 -19 11.5 -31t31.5 -12q23 0 39.5 18.5t30.5 61.5l93 -27q-22 -72 -62 -105t-105 -33q-63 0 -102 36t-39 94q0 29 10.5 54t39.5 68q44 66 53.5 100t8.5 119zM131 390v107h97v-107h-97z" />
    <glyph glyph-name="Agrave" unicode="&#xc0;" horiz-adv-x="451" 
d="M297 145h-142l-27 -145h-101l128 667h141l135 -667h-106zM280 240l-55 299l-54 -299h109zM267 720h-70l-72 89h97z" />
    <glyph glyph-name="Aacute" unicode="&#xc1;" horiz-adv-x="451" 
d="M297 145h-142l-27 -145h-101l128 667h141l135 -667h-106zM280 240l-55 299l-54 -299h109zM178 720l46 89h96l-72 -89h-70z" />
    <glyph glyph-name="Acircumflex" unicode="&#xc2;" horiz-adv-x="451" 
d="M297 145h-142l-27 -145h-101l128 667h141l135 -667h-106zM280 240l-55 299l-54 -299h109zM174 809h104l63 -89h-84l-31 34l-31 -34h-84z" />
    <glyph glyph-name="Atilde" unicode="&#xc3;" horiz-adv-x="451" 
d="M297 145h-142l-27 -145h-101l128 667h141l135 -667h-106zM280 240l-55 299l-54 -299h109zM126 725v69q27 15 57 15q21 0 45 -8q32 -12 50 -12t48 18v-70q-30 -17 -48 -17t-50 12q-24 8 -45 8q-30 0 -57 -15z" />
    <glyph glyph-name="Adieresis" unicode="&#xc4;" horiz-adv-x="451" 
d="M297 145h-142l-27 -145h-101l128 667h141l135 -667h-106zM280 240l-55 299l-54 -299h109zM196 809v-89h-87v89h87zM349 809v-89h-87v89h87z" />
    <glyph glyph-name="Aring" unicode="&#xc5;" horiz-adv-x="451" 
d="M297 145h-142l-27 -145h-101l128 667h141l135 -667h-106zM280 240l-55 299l-54 -299h109zM228 846q30 0 51.5 -20.5t21.5 -48.5q0 -29 -21.5 -49.5t-51.5 -20.5q-31 0 -52.5 20.5t-21.5 49.5t21.5 49t52.5 20zM227 811q-14 0 -25 -10.5t-11 -23.5q0 -14 10.5 -24.5
t26.5 -10.5q15 0 25.5 10.5t10.5 24.5t-10.5 24t-26.5 10z" />
    <glyph glyph-name="AE" unicode="&#xc6;" horiz-adv-x="635" 
d="M313 145h-143l-55 -145h-111l254 667h357v-95h-199v-176h146v-95h-146v-206h199v-95h-302v145zM313 240v299l-108 -299h108z" />
    <glyph glyph-name="Ccedilla" unicode="&#xc7;" horiz-adv-x="444" 
d="M405 450h-103v17q0 113 -78 113q-44 0 -61 -33q-16 -27 -16 -96v-222q0 -69 11 -99q16 -43 67 -43q58 0 73 69q5 19 6 78h104v-22q0 -109 -46.5 -165.5t-136.5 -56.5q-104 0 -149 74q-19 31 -25.5 68t-6.5 111v187q0 79 8 116t31 69q45 62 141 62q87 0 134 -55t47 -157
v-15zM266 -46v-68l-22 -56h-47l17 56h-28v68h80z" />
    <glyph glyph-name="Egrave" unicode="&#xc8;" horiz-adv-x="373" 
d="M353 667v-95h-199v-176h147v-95h-147v-206h199v-95h-302v667h302zM228 720h-70l-72 89h97z" />
    <glyph glyph-name="Eacute" unicode="&#xc9;" horiz-adv-x="373" 
d="M353 667v-95h-199v-176h147v-95h-147v-206h199v-95h-302v667h302zM139 720l46 89h96l-72 -89h-70z" />
    <glyph glyph-name="Ecircumflex" unicode="&#xca;" horiz-adv-x="373" 
d="M353 667v-95h-199v-176h147v-95h-147v-206h199v-95h-302v667h302zM135 809h104l63 -89h-84l-31 34l-31 -34h-84z" />
    <glyph glyph-name="Edieresis" unicode="&#xcb;" horiz-adv-x="373" 
d="M353 667v-95h-199v-176h147v-95h-147v-206h199v-95h-302v667h302zM154 809v-89h-87v89h87zM307 809v-89h-87v89h87z" />
    <glyph glyph-name="Igrave" unicode="&#xcc;" horiz-adv-x="205" 
d="M154 667v-667h-103v667h103zM143 720h-70l-72 89h97z" />
    <glyph glyph-name="Iacute" unicode="&#xcd;" horiz-adv-x="205" 
d="M154 667v-667h-103v667h103zM55 720l46 89h96l-72 -89h-70z" />
    <glyph glyph-name="Icircumflex" unicode="&#xce;" horiz-adv-x="205" 
d="M153 667v-667h-103v667h103zM50 809h104l63 -89h-84l-31 34l-31 -34h-84z" />
    <glyph glyph-name="Idieresis" unicode="&#xcf;" horiz-adv-x="205" 
d="M154 667v-667h-103v667h103zM76 809v-89h-87v89h87zM216 809v-89h-87v89h87z" />
    <glyph glyph-name="Eth" unicode="&#xd0;" horiz-adv-x="454" 
d="M54 0v301h-23v95h23v271h163q98 0 145.5 -51.5t47.5 -157.5v-250q0 -106 -47.5 -157t-145.5 -51h-163zM157 95h50q55 0 77.5 32t22.5 110v193q0 78 -22.5 110t-77.5 32h-50v-176h77v-95h-77v-206z" />
    <glyph glyph-name="Ntilde" unicode="&#xd1;" horiz-adv-x="471" 
d="M421 667v-667h-92l-180 444v-444h-98v667h104l168 -415v415h98zM136 725v69q27 15 57 15q21 0 45 -8q32 -12 50 -12t48 18v-70q-30 -17 -48 -17t-50 12q-24 8 -45 8q-30 0 -57 -15z" />
    <glyph glyph-name="Ograve" unicode="&#xd2;" horiz-adv-x="452" 
d="M408 455v-243q0 -105 -38 -158q-46 -64 -144 -64t-144 64q-38 53 -38 158v243q0 105 38 158q46 64 144 64t144 -64q38 -53 38 -158zM147 453v-239q0 -64 13 -91q20 -36 66 -36t66 36q13 25 13 91v239q0 66 -13 91q-20 36 -66 36t-66 -36q-13 -26 -13 -91zM267 720h-70
l-72 89h97z" />
    <glyph glyph-name="Oacute" unicode="&#xd3;" horiz-adv-x="452" 
d="M408 455v-243q0 -105 -38 -158q-46 -64 -144 -64t-144 64q-38 53 -38 158v243q0 105 38 158q46 64 144 64t144 -64q38 -53 38 -158zM147 453v-239q0 -64 13 -91q20 -36 66 -36t66 36q13 25 13 91v239q0 66 -13 91q-20 36 -66 36t-66 -36q-13 -26 -13 -91zM178 720l46 89
h96l-72 -89h-70z" />
    <glyph glyph-name="Ocircumflex" unicode="&#xd4;" horiz-adv-x="452" 
d="M408 455v-243q0 -105 -38 -158q-46 -64 -144 -64t-144 64q-38 53 -38 158v243q0 105 38 158q46 64 144 64t144 -64q38 -53 38 -158zM147 453v-239q0 -64 13 -91q20 -36 66 -36t66 36q13 25 13 91v239q0 66 -13 91q-20 36 -66 36t-66 -36q-13 -26 -13 -91zM174 809h104
l63 -89h-84l-31 34l-31 -34h-84z" />
    <glyph glyph-name="Otilde" unicode="&#xd5;" horiz-adv-x="452" 
d="M408 455v-243q0 -105 -38 -158q-46 -64 -144 -64t-144 64q-38 53 -38 158v243q0 105 38 158q46 64 144 64t144 -64q38 -53 38 -158zM147 453v-239q0 -64 13 -91q20 -36 66 -36t66 36q13 25 13 91v239q0 66 -13 91q-20 36 -66 36t-66 -36q-13 -26 -13 -91zM126 725v69
q27 15 57 15q21 0 45 -8q32 -12 50 -12t48 18v-70q-30 -17 -48 -17t-50 12q-24 8 -45 8q-30 0 -57 -15z" />
    <glyph glyph-name="Odieresis" unicode="&#xd6;" horiz-adv-x="452" 
d="M408 455v-243q0 -105 -38 -158q-46 -64 -144 -64t-144 64q-38 53 -38 158v243q0 105 38 158q46 64 144 64t144 -64q38 -53 38 -158zM147 453v-239q0 -64 13 -91q20 -36 66 -36t66 36q13 25 13 91v239q0 66 -13 91q-20 36 -66 36t-66 -36q-13 -26 -13 -91zM193 809v-89
h-87v89h87zM346 809v-89h-87v89h87z" />
    <glyph glyph-name="minus" unicode="&#xd7;" 
d="M373 381v-79h-335v79h335z" />
    <glyph glyph-name="Oslash" unicode="&#xd8;" horiz-adv-x="452" 
d="M324 688h53l-20 -59q28 -30 39.5 -69.5t11.5 -104.5v-243q0 -105 -38 -158q-47 -64 -143 -64q-47 0 -89 18l-10 -30h-53l21 60q-29 31 -40.5 70t-11.5 104v243q0 105 38 158q46 64 144 64q49 0 88 -18zM147 185l132 376q-22 20 -54 20q-46 0 -65 -37q-13 -26 -13 -91
v-268zM305 481l-132 -374q21 -20 53 -20q46 0 66 36q13 25 13 91v267z" />
    <glyph glyph-name="Ugrave" unicode="&#xd9;" horiz-adv-x="454" 
d="M301 667h103v-452q0 -113 -38 -165q-45 -60 -138 -60q-94 0 -139 60q-38 52 -38 165v452h103v-469q0 -59 17 -85t56 -26q40 0 57 26t17 85v469zM268 720h-70l-72 89h97z" />
    <glyph glyph-name="Uacute" unicode="&#xda;" horiz-adv-x="454" 
d="M301 667h103v-452q0 -113 -38 -165q-45 -60 -138 -60q-94 0 -139 60q-38 52 -38 165v452h103v-469q0 -59 17 -85t56 -26q40 0 57 26t17 85v469zM179 720l46 89h96l-72 -89h-70z" />
    <glyph glyph-name="Ucircumflex" unicode="&#xdb;" horiz-adv-x="454" 
d="M301 667h103v-452q0 -113 -38 -165q-45 -60 -138 -60q-94 0 -139 60q-38 52 -38 165v452h103v-469q0 -59 17 -85t56 -26q40 0 57 26t17 85v469zM175 809h104l63 -89h-84l-31 34l-31 -34h-84z" />
    <glyph glyph-name="Udieresis" unicode="&#xdc;" horiz-adv-x="454" 
d="M301 667h103v-452q0 -113 -38 -165q-45 -60 -138 -60q-94 0 -139 60q-38 52 -38 165v452h103v-469q0 -59 17 -85t56 -26q40 0 57 26t17 85v469zM194 809v-89h-87v89h87zM347 809v-89h-87v89h87z" />
    <glyph glyph-name="Yacute" unicode="&#xdd;" horiz-adv-x="440" 
d="M270 260v-260h-103v260l-150 407h114l89 -282l92 282h112zM173 720l46 89h96l-72 -89h-70z" />
    <glyph glyph-name="Thorn" unicode="&#xde;" horiz-adv-x="435" 
d="M154 167v-167h-103v667h103v-104h68q96 0 140 -43q53 -50 53 -155t-53 -155q-44 -43 -140 -43h-68zM154 262h45q62 0 85.5 22t23.5 81t-23.5 81t-85.5 22h-45v-206z" />
    <glyph glyph-name="germandbls" unicode="&#xdf;" horiz-adv-x="386" 
d="M136 0h-93v491q0 94 34 136q38 47 105 47q58 0 94.5 -36t36.5 -94t-48 -90q48 -17 64 -58t16 -146q0 -157 -34 -206q-32 -46 -97 -46q-17 0 -29 2v91q5 -1 12 -1q30 0 40 31t10 124q0 101 -15 130.5t-67 31.5v90q55 0 55 48q0 20 -11 32t-29 12q-44 0 -44 -76v-513z" />
    <glyph glyph-name="agrave" unicode="&#xe0;" horiz-adv-x="396" 
d="M354 0h-96q-8 22 -8 58q-34 -37 -58 -51t-54 -14q-47 0 -74 35t-27 97q0 48 19.5 80t66.5 60q26 17 127 60v26q0 38 -11.5 54.5t-37.5 16.5t-39 -16.5t-16 -54.5h-98q6 75 48.5 114t117.5 39q68 0 102 -38q16 -20 21.5 -42.5t5.5 -67.5v-221q0 -90 11 -135zM250 120v136
q-62 -33 -88.5 -62t-26.5 -63q0 -25 13.5 -40.5t33.5 -15.5q41 0 68 45zM239 578h-70l-72 89h97z" />
    <glyph glyph-name="aacute" unicode="&#xe1;" horiz-adv-x="396" 
d="M354 0h-96q-8 22 -8 58q-34 -37 -58 -51t-54 -14q-47 0 -74 35t-27 97q0 48 19.5 80t66.5 60q26 17 127 60v26q0 38 -11.5 54.5t-37.5 16.5t-39 -16.5t-16 -54.5h-98q6 75 48.5 114t117.5 39q68 0 102 -38q16 -20 21.5 -42.5t5.5 -67.5v-221q0 -90 11 -135zM250 120v136
q-62 -33 -88.5 -62t-26.5 -63q0 -25 13.5 -40.5t33.5 -15.5q41 0 68 45zM150 578l46 89h96l-72 -89h-70z" />
    <glyph glyph-name="acircumflex" unicode="&#xe2;" horiz-adv-x="396" 
d="M354 0h-96q-8 22 -8 58q-34 -37 -58 -51t-54 -14q-47 0 -74 35t-27 97q0 48 19.5 80t66.5 60q26 17 127 60v26q0 38 -11.5 54.5t-37.5 16.5t-39 -16.5t-16 -54.5h-98q6 75 48.5 114t117.5 39q68 0 102 -38q16 -20 21.5 -42.5t5.5 -67.5v-221q0 -90 11 -135zM250 120v136
q-62 -33 -88.5 -62t-26.5 -63q0 -25 13.5 -40.5t33.5 -15.5q41 0 68 45zM146 667h104l63 -89h-84l-31 34l-31 -34h-84z" />
    <glyph glyph-name="atilde" unicode="&#xe3;" horiz-adv-x="396" 
d="M354 0h-96q-8 22 -8 58q-34 -37 -58 -51t-54 -14q-47 0 -74 35t-27 97q0 48 19.5 80t66.5 60q26 17 127 60v26q0 38 -11.5 54.5t-37.5 16.5t-39 -16.5t-16 -54.5h-98q6 75 48.5 114t117.5 39q68 0 102 -38q16 -20 21.5 -42.5t5.5 -67.5v-221q0 -90 11 -135zM250 120v136
q-62 -33 -88.5 -62t-26.5 -63q0 -25 13.5 -40.5t33.5 -15.5q41 0 68 45zM98 583v69q27 15 58 15q20 0 44 -8q32 -11 50 -11t48 17v-69q-29 -17 -48 -17q-18 0 -50 11q-24 8 -44 8q-31 0 -58 -15z" />
    <glyph glyph-name="adieresis" unicode="&#xe4;" horiz-adv-x="396" 
d="M354 0h-96q-8 22 -8 58q-34 -37 -58 -51t-54 -14q-47 0 -74 35t-27 97q0 48 19.5 80t66.5 60q26 17 127 60v26q0 38 -11.5 54.5t-37.5 16.5t-39 -16.5t-16 -54.5h-98q6 75 48.5 114t117.5 39q68 0 102 -38q16 -20 21.5 -42.5t5.5 -67.5v-221q0 -90 11 -135zM250 120v136
q-62 -33 -88.5 -62t-26.5 -63q0 -25 13.5 -40.5t33.5 -15.5q41 0 68 45zM169 667v-89h-87v89h87zM322 667v-89h-87v89h87z" />
    <glyph glyph-name="aring" unicode="&#xe5;" horiz-adv-x="396" 
d="M354 0h-96q-8 22 -8 58q-34 -37 -58 -51t-54 -14q-47 0 -74 35t-27 97q0 48 19.5 80t66.5 60q26 17 127 60v26q0 38 -11.5 54.5t-37.5 16.5t-39 -16.5t-16 -54.5h-98q6 75 48.5 114t117.5 39q68 0 102 -38q16 -20 21.5 -42.5t5.5 -67.5v-221q0 -90 11 -135zM250 120v136
q-62 -33 -88.5 -62t-26.5 -63q0 -25 13.5 -40.5t33.5 -15.5q41 0 68 45zM203 692q30 0 51.5 -20.5t21.5 -48.5q0 -30 -21.5 -50.5t-51.5 -20.5q-31 0 -52.5 20.5t-21.5 49.5t21.5 49.5t52.5 20.5zM202 657q-15 0 -25.5 -10.5t-10.5 -24.5t10.5 -24.5t26.5 -10.5
q15 0 25.5 10.5t10.5 24.5q0 15 -10.5 25t-26.5 10z" />
    <glyph glyph-name="ae" unicode="&#xe6;" horiz-adv-x="599" 
d="M558 233h-215v-44q0 -65 13.5 -89.5t49.5 -24.5q45 0 56 44q4 13 4 53h93q-1 -53 -4.5 -75.5t-16.5 -42.5q-38 -61 -132 -61q-91 0 -130 57q-65 -57 -127 -57q-53 0 -82.5 35t-29.5 98q0 47 20 79t66 60q35 21 127 60v26q0 38 -11.5 54.5t-37.5 16.5t-39 -16.5t-16 -54.5
h-98q6 74 48.5 113.5t116.5 39.5q59 0 91 -26q39 26 99 26q78 0 117 -45q21 -24 29.5 -55.5t8.5 -88.5v-82zM250 120v136q-62 -33 -88.5 -61.5t-26.5 -63.5q0 -25 13.5 -40.5t33.5 -15.5q40 0 68 45zM465 315v27q0 44 -14.5 64t-46.5 20t-46.5 -20t-14.5 -64v-27h122z" />
    <glyph glyph-name="ccedilla" unicode="&#xe7;" horiz-adv-x="377" 
d="M349 325h-93v16q0 81 -60 81q-36 0 -49.5 -24.5t-13.5 -89.5v-120q0 -63 12 -86q14 -27 51 -27q60 0 60 85v16h93v-18q0 -83 -35 -122q-41 -46 -118 -46q-87 0 -125 52q-31 42 -31 134v144q0 93 31 135q38 52 125 52q78 0 118 -45q35 -38 35 -120v-17zM235 -46v-68
l-22 -56h-47l17 56h-28v68h80z" />
    <glyph glyph-name="egrave" unicode="&#xe8;" horiz-adv-x="389" 
d="M348 233h-215v-44q0 -65 13.5 -89.5t49.5 -24.5q45 0 56 44q4 13 4 53h93q-1 -54 -5 -77t-16 -42q-38 -63 -132 -63q-87 0 -125 52q-31 44 -31 135v148q0 59 8.5 89.5t31.5 52.5q42 40 113 40q77 0 117 -46q22 -24 30 -55.5t8 -90.5v-82zM255 315v27q0 44 -14.5 63.5
t-46.5 19.5t-46.5 -19.5t-14.5 -63.5v-27h122zM236 578h-70l-72 89h97z" />
    <glyph glyph-name="eacute" unicode="&#xe9;" horiz-adv-x="389" 
d="M348 233h-215v-44q0 -65 13.5 -89.5t49.5 -24.5q45 0 56 44q4 13 4 53h93q-1 -54 -5 -77t-16 -42q-38 -63 -132 -63q-87 0 -125 52q-31 44 -31 135v148q0 59 8.5 89.5t31.5 52.5q42 40 113 40q77 0 117 -46q22 -24 30 -55.5t8 -90.5v-82zM255 315v27q0 44 -14.5 63.5
t-46.5 19.5t-46.5 -19.5t-14.5 -63.5v-27h122zM147 578l46 89h96l-72 -89h-70z" />
    <glyph glyph-name="ecircumflex" unicode="&#xea;" horiz-adv-x="389" 
d="M348 233h-215v-44q0 -65 13.5 -89.5t49.5 -24.5q45 0 56 44q4 13 4 53h93q-1 -54 -5 -77t-16 -42q-38 -63 -132 -63q-87 0 -125 52q-31 44 -31 135v148q0 59 8.5 89.5t31.5 52.5q42 40 113 40q77 0 117 -46q22 -24 30 -55.5t8 -90.5v-82zM255 315v27q0 44 -14.5 63.5
t-46.5 19.5t-46.5 -19.5t-14.5 -63.5v-27h122zM143 667h104l63 -89h-84l-31 34l-31 -34h-84z" />
    <glyph glyph-name="edieresis" unicode="&#xeb;" horiz-adv-x="389" 
d="M348 233h-215v-44q0 -65 13.5 -89.5t49.5 -24.5q45 0 56 44q4 13 4 53h93q-1 -54 -5 -77t-16 -42q-38 -63 -132 -63q-87 0 -125 52q-31 44 -31 135v148q0 59 8.5 89.5t31.5 52.5q42 40 113 40q77 0 117 -46q22 -24 30 -55.5t8 -90.5v-82zM255 315v27q0 44 -14.5 63.5
t-46.5 19.5t-46.5 -19.5t-14.5 -63.5v-27h122zM162 667v-89h-87v89h87zM315 667v-89h-87v89h87z" />
    <glyph glyph-name="igrave" unicode="&#xec;" horiz-adv-x="180" 
d="M137 497v-497h-93v497h93zM131 578h-70l-72 89h97z" />
    <glyph glyph-name="iacute" unicode="&#xed;" horiz-adv-x="180" 
d="M136 497v-497h-93v497h93zM42 578l46 89h96l-72 -89h-70z" />
    <glyph glyph-name="icircumflex" unicode="&#xee;" horiz-adv-x="180" 
d="M136 497v-497h-93v497h93zM38 667h104l63 -89h-84l-31 34l-31 -34h-84z" />
    <glyph glyph-name="idieresis" unicode="&#xef;" horiz-adv-x="180" 
d="M137 497v-497h-93v497h93zM64 667v-89h-87v89h87zM204 667v-89h-87v89h87z" />
    <glyph glyph-name="eth" unicode="&#xf0;" horiz-adv-x="385" 
d="M233 653l53 48l29 -33l-51 -46q81 -93 81 -237v-213q0 -59 -8.5 -89.5t-30.5 -52.5q-42 -40 -113 -40q-72 0 -114 40q-22 23 -30.5 53.5t-8.5 88.5v136q0 97 23 142q25 50 87 50q49 0 102 -41q-11 58 -45 112l-48 -42l-29 32l49 43q-6 7 -10.5 11.5t-9.5 9t-9 8.5l46 48
q22 -14 37 -28zM133 331v-165q0 -91 59 -91q31 0 45.5 22t14.5 69v165q0 48 -14 69.5t-46 21.5q-59 0 -59 -91z" />
    <glyph glyph-name="ntilde" unicode="&#xf1;" horiz-adv-x="385" 
d="M136 497v-64q61 71 124 71q81 0 81 -116v-388h-93v364q0 32 -8 45t-27 13q-39 0 -77 -50v-372h-93v497h93zM92 583v69q27 15 58 15q20 0 44 -8q32 -11 50 -11t48 17v-69q-29 -17 -48 -17q-18 0 -50 11q-24 8 -44 8q-31 0 -58 -15z" />
    <glyph glyph-name="ograve" unicode="&#xf2;" horiz-adv-x="385" 
d="M345 325v-153q0 -59 -8.5 -89.5t-30.5 -52.5q-42 -40 -113 -40q-72 0 -114 40q-22 23 -30.5 53.5t-8.5 88.5v153q0 58 8.5 88.5t30.5 53.5q42 40 114 40q71 0 113 -40q22 -22 30.5 -52.5t8.5 -89.5zM133 331v-165q0 -91 59 -91q31 0 45.5 22t14.5 69v165q0 48 -14 69.5
t-46 21.5q-59 0 -59 -91zM233 578h-70l-72 89h97z" />
    <glyph glyph-name="oacute" unicode="&#xf3;" horiz-adv-x="385" 
d="M345 325v-153q0 -59 -8.5 -89.5t-30.5 -52.5q-42 -40 -113 -40q-72 0 -114 40q-22 23 -30.5 53.5t-8.5 88.5v153q0 58 8.5 88.5t30.5 53.5q42 40 114 40q71 0 113 -40q22 -22 30.5 -52.5t8.5 -89.5zM133 331v-165q0 -91 59 -91q31 0 45.5 22t14.5 69v165q0 48 -14 69.5
t-46 21.5q-59 0 -59 -91zM145 578l46 89h96l-72 -89h-70z" />
    <glyph glyph-name="ocircumflex" unicode="&#xf4;" horiz-adv-x="385" 
d="M345 325v-153q0 -59 -8.5 -89.5t-30.5 -52.5q-42 -40 -113 -40q-72 0 -114 40q-22 23 -30.5 53.5t-8.5 88.5v153q0 58 8.5 88.5t30.5 53.5q42 40 114 40q71 0 113 -40q22 -22 30.5 -52.5t8.5 -89.5zM133 331v-165q0 -91 59 -91q31 0 45.5 22t14.5 69v165q0 48 -14 69.5
t-46 21.5q-59 0 -59 -91zM140 667h104l63 -89h-84l-31 34l-31 -34h-84z" />
    <glyph glyph-name="otilde" unicode="&#xf5;" horiz-adv-x="385" 
d="M345 325v-153q0 -59 -8.5 -89.5t-30.5 -52.5q-42 -40 -113 -40q-72 0 -114 40q-22 23 -30.5 53.5t-8.5 88.5v153q0 58 8.5 88.5t30.5 53.5q42 40 114 40q71 0 113 -40q22 -22 30.5 -52.5t8.5 -89.5zM133 331v-165q0 -91 59 -91q31 0 45.5 22t14.5 69v165q0 48 -14 69.5
t-46 21.5q-59 0 -59 -91zM92 583v69q27 15 58 15q20 0 44 -8q32 -11 50 -11t48 17v-69q-29 -17 -48 -17q-18 0 -50 11q-24 8 -44 8q-31 0 -58 -15z" />
    <glyph glyph-name="odieresis" unicode="&#xf6;" horiz-adv-x="385" 
d="M345 325v-153q0 -59 -8.5 -89.5t-30.5 -52.5q-42 -40 -113 -40q-72 0 -114 40q-22 23 -30.5 53.5t-8.5 88.5v153q0 58 8.5 88.5t30.5 53.5q42 40 114 40q71 0 113 -40q22 -22 30.5 -52.5t8.5 -89.5zM133 331v-165q0 -91 59 -91q31 0 45.5 22t14.5 69v165q0 48 -14 69.5
t-46 21.5q-59 0 -59 -91zM159 667v-89h-87v89h87zM312 667v-89h-87v89h87z" />
    <glyph glyph-name="multiply" unicode="&#xf7;" 
d="M295 488l56 -56l-90 -90l89 -88l-58 -58l-88 88l-90 -89l-56 56l90 90l-87 86l58 58l86 -87z" />
    <glyph glyph-name="oslash" unicode="&#xf8;" horiz-adv-x="385" 
d="M265 537h46l-19 -58q31 -25 42 -56.5t11 -97.5v-153q0 -59 -8.5 -89.5t-30.5 -52.5q-42 -40 -113 -40q-31 0 -62 9l-13 -39h-47l20 60q-30 25 -40.5 56t-10.5 96v153q0 59 8.5 89t30.5 53q42 40 115 40q35 0 58 -9zM133 146l90 268q-15 8 -30 8q-32 0 -46 -21.5
t-14 -69.5v-185zM252 359l-92 -274q14 -10 33 -10q59 0 59 91v193z" />
    <glyph glyph-name="ugrave" unicode="&#xf9;" horiz-adv-x="385" 
d="M341 497v-497h-93v64q-61 -71 -124 -71q-81 0 -81 116v388h93v-364q0 -32 8 -45t27 -13q39 0 77 50v372h93zM233 578h-70l-72 89h97z" />
    <glyph glyph-name="uacute" unicode="&#xfa;" horiz-adv-x="385" 
d="M341 497v-497h-93v64q-61 -71 -124 -71q-81 0 -81 116v388h93v-364q0 -32 8 -45t27 -13q39 0 77 50v372h93zM144 578l46 89h96l-72 -89h-70z" />
    <glyph glyph-name="ucircumflex" unicode="&#xfb;" horiz-adv-x="385" 
d="M341 497v-497h-93v64q-61 -71 -124 -71q-81 0 -81 116v388h93v-364q0 -32 8 -45t27 -13q39 0 77 50v372h93zM140 667h104l63 -89h-84l-31 34l-31 -34h-84z" />
    <glyph glyph-name="udieresis" unicode="&#xfc;" horiz-adv-x="385" 
d="M341 497v-497h-93v64q-61 -71 -124 -71q-81 0 -81 116v388h93v-364q0 -32 8 -45t27 -13q39 0 77 50v372h93zM159 667v-89h-87v89h87zM312 667v-89h-87v89h87z" />
    <glyph glyph-name="yacute" unicode="&#xfd;" horiz-adv-x="354" 
d="M248 497h96l-108 -476q-26 -122 -66 -160t-145 -38v96q7 -1 17 -1q38 0 61 22.5t23 59.5q0 14 -7 43l-109 454h98l73 -339zM129 578l46 89h96l-72 -89h-70z" />
    <glyph glyph-name="thorn" unicode="&#xfe;" horiz-adv-x="387" 
d="M43 667h93v-219q59 56 110 56q55 0 80 -51q20 -45 20 -145v-119q0 -100 -20 -145q-25 -51 -80 -51q-51 0 -110 56v-219h-93v837zM136 397v-297q35 -25 65 -25q32 0 43 26q9 19 9 82v131q0 63 -9 82q-11 26 -43 26q-30 0 -65 -25z" />
    <glyph glyph-name="ydieresis" unicode="&#xff;" horiz-adv-x="354" 
d="M248 497h96l-108 -476q-26 -122 -66 -160t-145 -38v96q7 -1 17 -1q38 0 61 22.5t23 59.5q0 14 -7 43l-109 454h98l73 -339zM144 667v-89h-87v89h87zM297 667v-89h-87v89h87z" />
    <glyph glyph-name="dotlessi" unicode="&#x131;" horiz-adv-x="180" 
d="M136 497v-497h-93v497h93z" />
    <glyph glyph-name="Lslash" unicode="&#x141;" horiz-adv-x="352" 
d="M133 446l73 57v-101l-73 -57v-250h205v-95h-308v279l-27 -20v101l27 20v287h103v-221z" />
    <glyph glyph-name="lslash" unicode="&#x142;" horiz-adv-x="218" 
d="M158 449l45 35v-95l-45 -34v-355h-93v293l-45 -34v94l45 35v279h93v-218z" />
    <glyph glyph-name="OE" unicode="&#x152;" horiz-adv-x="619" 
d="M599 667v-95h-200v-176h147v-95h-147v-206h200v-95h-362q-98 0 -145.5 51t-47.5 157v250q0 106 47.5 157.5t145.5 51.5h362zM296 572h-50q-55 0 -77 -32t-22 -110v-193q0 -78 22 -110t77 -32h50v477z" />
    <glyph glyph-name="oe" unicode="&#x153;" horiz-adv-x="601" 
d="M560 233h-215v-34q0 -64 7 -86q14 -38 56 -38q44 0 55 44q4 13 4 53h94q-1 -54 -5 -77t-16 -42q-38 -63 -132 -63q-68 0 -109 34q-43 -34 -106 -34q-72 0 -114 40q-22 23 -30.5 53.5t-8.5 88.5v153q0 58 8.5 88.5t30.5 53.5q42 40 113 40q67 0 107 -34q41 34 106 34
q76 0 117 -46q21 -23 29.5 -55.5t8.5 -90.5v-82zM133 331v-165q0 -91 59 -91q31 0 45.5 22t14.5 69v165q0 48 -14 69.5t-46 21.5q-59 0 -59 -91zM466 315v27q0 44 -14 63.5t-46 19.5t-46.5 -19.5t-14.5 -63.5v-27h121z" />
    <glyph glyph-name="Scaron" unicode="&#x160;" horiz-adv-x="426" 
d="M401 510l-99 -29q-24 99 -88 99q-29 0 -48 -19.5t-19 -48.5q0 -37 28 -67q17 -19 88 -73q71 -56 99 -90q43 -53 43 -122q0 -76 -50.5 -123t-132.5 -47q-171 0 -202 188l99 29q19 -120 103 -120q34 0 55 21t21 55q0 31 -20 57.5t-79 72.5q-69 54 -86 69.5t-36 39.5
q-37 48 -37 111q0 72 49 118t125 46q144 0 187 -167zM265 720h-104l-63 89h84l31 -34l31 34h84z" />
    <glyph glyph-name="scaron" unicode="&#x161;" horiz-adv-x="362" 
d="M334 387l-85 -37q-15 39 -32.5 55.5t-44.5 16.5q-22 0 -35.5 -12t-13.5 -32t16 -35.5t68 -43.5q77 -42 101 -68q35 -37 35 -94q0 -66 -42 -106.5t-111 -40.5q-64 0 -105 34t-65 106l87 30q15 -46 34.5 -65.5t48.5 -19.5q23 0 38 14t15 36q0 21 -15 37t-55 38
q-82 46 -109 74q-36 38 -36 94q0 61 41 100t104 39q116 0 161 -120zM233 578h-104l-63 89h84l31 -34l31 34h84z" />
    <glyph glyph-name="Ydieresis" unicode="&#x178;" horiz-adv-x="440" 
d="M270 260v-260h-103v260l-150 407h114l89 -282l92 282h112zM187 809v-89h-87v89h87zM340 809v-89h-87v89h87z" />
    <glyph glyph-name="Zcaron" unicode="&#x17d;" horiz-adv-x="389" 
d="M369 95v-95h-349v97l233 475h-211v95h324v-95l-232 -477h235zM246 720h-104l-63 89h84l31 -34l31 34h84z" />
    <glyph glyph-name="zcaron" unicode="&#x17e;" horiz-adv-x="341" 
d="M318 90v-90h-295v93l188 314h-172v90h279v-93l-188 -314h188zM222 578h-104l-63 89h84l31 -34l31 34h84z" />
    <glyph glyph-name="florin" unicode="&#x192;" 
d="M349 475l-12 -61h-90l-114 -584h-93l113 584h-80l12 61h80l27 136q8 44 19.5 66.5t32.5 37.5q34 25 90 25q24 0 60 -6l-17 -87q-25 8 -39 8q-25 0 -37 -14t-20 -50l-22 -116h90z" />
    <glyph glyph-name="circumflex" unicode="&#x2c6;" horiz-adv-x="500" 
d="M198 667h104l63 -89h-84l-31 34l-31 -34h-84z" />
    <glyph glyph-name="caron" unicode="&#x2c7;" horiz-adv-x="500" 
d="M302 578h-104l-63 89h84l31 -34l31 34h84z" />
    <glyph glyph-name="breve" unicode="&#x2d8;" horiz-adv-x="500" 
d="M304 665l60 -34q-38 -50 -114 -50q-78 0 -115 50l60 34q29 -18 55 -18t54 18z" />
    <glyph glyph-name="dotaccent" unicode="&#x2d9;" horiz-adv-x="500" 
d="M294 667v-89h-87v89h87z" />
    <glyph glyph-name="ring" unicode="&#x2da;" horiz-adv-x="500" 
d="M251 692q30 0 51.5 -20.5t21.5 -48.5q0 -30 -21.5 -50.5t-51.5 -20.5q-31 0 -52.5 20.5t-21.5 49.5t21.5 49.5t52.5 20.5zM250 657q-15 0 -25.5 -10.5t-10.5 -24.5t10.5 -24.5t26.5 -10.5q15 0 25.5 10.5t10.5 24.5q0 15 -10.5 25t-26.5 10z" />
    <glyph glyph-name="ogonek" unicode="&#x2db;" horiz-adv-x="500" 
d="M258 0h52q-49 -40 -49 -76q0 -37 48 -37q16 0 30 6l-8 -57q-21 -7 -39 -7q-41 0 -66 20t-25 53q0 48 57 98z" />
    <glyph glyph-name="tilde" unicode="&#x2dc;" horiz-adv-x="500" 
d="M150 583v69q27 15 58 15q20 0 44 -8q32 -11 50 -11t48 17v-69q-29 -17 -48 -17q-18 0 -50 11q-24 8 -44 8q-31 0 -58 -15z" />
    <glyph glyph-name="hungarumlaut" unicode="&#x2dd;" horiz-adv-x="500" 
d="M139 578l46 89h96l-72 -89h-70zM279 578l46 89h96l-72 -89h-70z" />
    <glyph glyph-name="endash" unicode="&#x2013;" 
d="M373 295v-83h-335v83h335z" />
    <glyph glyph-name="emdash" unicode="&#x2014;" horiz-adv-x="503" 
d="M503 295v-83h-503v83h503z" />
    <glyph glyph-name="quoteleft" unicode="&#x2018;" horiz-adv-x="177" 
d="M40 422v107l59 138h38l-44 -138h44v-107h-97z" />
    <glyph glyph-name="quoteright" unicode="&#x2019;" horiz-adv-x="177" 
d="M137 667v-107l-59 -138h-38l44 138h-44v107h97z" />
    <glyph glyph-name="quotesinglbase" unicode="&#x201a;" horiz-adv-x="177" 
d="M137 107v-107l-59 -138h-38l44 138h-44v107h97z" />
    <glyph glyph-name="quotedblleft" unicode="&#x201c;" horiz-adv-x="323" 
d="M186 422v107l59 138h38l-44 -138h44v-107h-97zM40 422v107l59 138h38l-44 -138h44v-107h-97z" />
    <glyph glyph-name="quotedblright" unicode="&#x201d;" horiz-adv-x="323" 
d="M137 667v-107l-59 -138h-38l44 138h-44v107h97zM283 667v-107l-59 -138h-38l44 138h-44v107h97z" />
    <glyph glyph-name="quotedblbase" unicode="&#x201e;" horiz-adv-x="323" 
d="M137 107v-107l-59 -138h-38l44 138h-44v107h97zM283 107v-107l-59 -138h-38l44 138h-44v107h97z" />
    <glyph glyph-name="dagger" unicode="&#x2020;" 
d="M252 667v-165h126v-83h-126v-419h-93v419h-126v83h126v165h93z" />
    <glyph glyph-name="daggerdbl" unicode="&#x2021;" 
d="M252 667v-165h126v-83h-126v-171h126v-83h-126v-165h-93v165h-126v83h126v171h-126v83h126v165h93z" />
    <glyph glyph-name="bullet" unicode="&#x2022;" horiz-adv-x="667" 
d="M337 478q55 0 95.5 -41t40.5 -97q0 -58 -40.5 -98.5t-97.5 -40.5t-98 40.5t-41 97.5q0 58 41 98.5t100 40.5z" />
    <glyph glyph-name="ellipsis" unicode="&#x2026;" horiz-adv-x="520" 
d="M135 107v-107h-97v107h97zM308 107v-107h-97v107h97zM481 107v-107h-97v107h97z" />
    <glyph glyph-name="perthousand" unicode="&#x2030;" horiz-adv-x="770" 
d="M215 557v-124q0 -116 -92 -116q-93 0 -93 116v124q0 117 93 117q92 0 92 -117zM90 568v-145q0 -30 7 -41.5t26 -11.5q18 0 25 11.5t7 41.5v145q0 30 -7 41.5t-25 11.5q-19 0 -26 -11.5t-7 -41.5zM379 667h55l-276 -667h-55zM507 234v-124q0 -117 -92 -117t-92 117v124
q0 116 92 116t92 -116zM383 244v-145q0 -30 7 -41.5t25 -11.5t25 11.5t7 41.5v145q0 30 -7 41.5t-25 11.5t-25 -11.5t-7 -41.5zM740 234v-124q0 -117 -92 -117t-92 117v124q0 116 92 116t92 -116zM616 244v-145q0 -30 7 -41.5t25 -11.5t25 11.5t7 41.5v145q0 30 -7 41.5
t-25 11.5t-25 -11.5t-7 -41.5z" />
    <glyph glyph-name="guilsinglleft" unicode="&#x2039;" horiz-adv-x="169" 
d="M136 93l-103 85v144l103 85v-120l-38 -37l38 -37v-120z" />
    <glyph glyph-name="guilsinglright" unicode="&#x203a;" horiz-adv-x="169" 
d="M33 407l103 -85v-144l-103 -85v120l38 37l-38 37v120z" />
    <glyph glyph-name="fraction" unicode="&#x2044;" horiz-adv-x="120" 
d="M-93 -33l250 733h56l-254 -733h-52z" />
    <glyph glyph-name="divide" unicode="&#x2122;" 
d="M373 381v-79h-335v79h335zM247 248v-91h-83v91h83zM247 523v-91h-83v91h83z" />
    <glyph glyph-name="degree" unicode="&#x2212;" horiz-adv-x="380" 
d="M193 674q58 0 99.5 -42.5t41.5 -101.5q0 -60 -42 -102t-101 -42q-60 0 -102 42t-42 101q0 61 42.5 103t103.5 42zM189 606q-30 0 -52.5 -23t-22.5 -53q0 -31 22.5 -54t53.5 -23t54 22.5t23 53.5q0 32 -23 54.5t-55 22.5z" />
    <glyph glyph-name="fi" unicode="&#xfb01;" horiz-adv-x="415" 
d="M73 0v414h-67v83h67v47q0 45 6.5 67.5t24.5 37.5q29 25 91 25q33 0 103 -7v-87q-56 9 -84 9t-38 -13.5t-10 -51.5v-27h205v-497h-93v414h-112v-414h-93z" />
    <glyph glyph-name="fl" unicode="&#xfb02;" horiz-adv-x="415" 
d="M237 497v-83h-71v-414h-93v414h-67v83h67v47q0 45 7 68t24 37q31 25 80 25q16 0 60 -4q22 -3 34 -3h93v-667h-93v581q-42 8 -68 8q-25 0 -34.5 -14t-9.5 -51v-27h71z" />
    <glyph glyph-name="mu" horiz-adv-x="385" 
d="M248 497h93v-497h-93v57q-25 -64 -68 -64q-28 0 -44 31v-194h-93v667h93v-353q0 -41 10.5 -58.5t35.5 -17.5q38 0 66 62v367z" />
    </font>
</defs>
</svg>
